<svg xmlns="http://www.w3.org/2000/svg" width="404.283935546875" height="429.8223876953125" viewBox="-195.5986785888672 -196.0185089111328 404.283935546875 429.8223876953125"><title>Neo4j Graph Visualization</title><desc>Created using Neo4j (http://www.neo4j.com/)</desc><g class="layer relationships"><g class="relationship" transform="translate(125.14728672656932 48.47711707673387) rotate(292.4479549330914)"><path class="b-outline" fill="#A5ABB6" stroke="none" d="M 24.018736134675446,-6.953439040707552 L 24.277555179777966,-5.987513214418485 A 176.72402714183843 176.72402714183843 0 0 1 40.64203181925868,-9.550776401055458 L 40.47581182197181,-10.53686509508961 A 177.72402714183843 177.72402714183843 0 0 0 24.018736134675446,-6.953439040707552 Z M 95.30526259504784,-11.200925783954688 L 95.16297365488352,-10.211100618833626 A 176.72402714183843 176.72402714183843 0 0 1 111.60894958822041,-7.045217515897585 L 110.9029021232053,-4.129484850314935 L 118.53000038541579,-5.883728875126064 L 112.55034620824058,-10.932861070007787 L 111.84429874322547,-8.017128404425137 A 177.72402714183843 177.72402714183843 0 0 0 95.30526259504784,-11.200925783954688"/><text text-anchor="middle" pointer-events="none" font-size="8px" fill="#000000" x="67.87082778805981" y="-9.496241729477134" font-family="Helvetica Neue, Helvetica, Arial, sans-serif">TUBULAÇÃO</text></g><g class="relationship" transform="translate(57.33059298300128 -167.01851152896933) rotate(394.3082148409148)"><path class="b-outline" fill="#A5ABB6" stroke="none" d="M 25 0.5 L 43.11375934565102 0.5 L 43.11375934565102 -0.5 L 25 -0.5 Z M 98.01219684565102 0.5 L 116.12595619130204 0.5 L 116.12595619130204 3.5 L 123.12595619130204 0 L 116.12595619130204 -3.5 L 116.12595619130204 -0.5 L 98.01219684565102 -0.5 Z"/><text text-anchor="middle" pointer-events="none" font-size="8px" fill="#000000" x="70.56297809565102" y="3" font-family="Helvetica Neue, Helvetica, Arial, sans-serif">TUBULAÇÃO</text></g><g class="relationship" transform="translate(-89.41709454008235 -145.48038576314067) rotate(351.65032497148036)"><path class="b-outline" fill="#A5ABB6" stroke="none" d="M 24.018736134675446,6.953439040707552 L 24.277555179777966,5.987513214418485 A 187.5337193206127 187.5337193206127 0 0 0 43.370207636001524,10.051595189531582 L 43.21319776167315,11.03919222241666 A 188.5337193206127 188.5337193206127 0 0 1 24.018736134675446,6.953439040707552 Z M 98.05857954070179,11.67992190856259 L 97.92468452026299,10.688926387128873 A 187.5337193206127 187.5337193206127 0 0 0 117.10707024770309,7.071991508218859 L 116.39852219987523,4.156865496548127 L 124.02712228290612,5.904567065232281 L 118.05180097814025,10.958826190446501 L 117.34325293031239,8.043700178775769 A 188.5337193206127 188.5337193206127 0 0 1 98.05857954070179,11.67992190856259"/><text text-anchor="middle" pointer-events="none" font-size="8px" fill="#000000" x="70.6183043967989" y="15.86473961921456" font-family="Helvetica Neue, Helvetica, Arial, sans-serif">TUBULAÇÃO</text></g><g class="relationship" transform="translate(-166.59868254266536 -19.49921117258357) rotate(301.49346121418614)"><path class="b-outline" fill="#A5ABB6" stroke="none" d="M 24.018736134675446,-6.953439040707552 L 24.277555179777966,-5.987513214418485 A 186.4007910175582 186.4007910175582 0 0 1 43.08396490727419,-9.99979190729826 L 42.9260381900681,-10.987242742526263 A 187.4007910175582 187.4007910175582 0 0 0 24.018736134675446,-6.953439040707552 Z M 97.76990160611274,-11.630343114214327 L 97.63517287016813,-10.639460594583085 A 186.4007910175582 186.4007910175582 0 0 1 116.53049476435272,-7.069273251746607 L 115.822200589095,-4.154085545732466 L 123.45064844092867,-5.9024514604809575 L 117.47488699802967,-10.956190193098795 L 116.76659282277195,-8.041002487084654 A 187.4007910175582 187.4007910175582 0 0 0 97.76990160611274,-11.630343114214327"/><text text-anchor="middle" pointer-events="none" font-size="8px" fill="#000000" x="70.33017770935086" y="-9.826118080186887" font-family="Helvetica Neue, Helvetica, Arial, sans-serif">TUBULAÇÃO</text></g><g class="relationship" transform="translate(-130.52034267994947 122.91397407846397) rotate(255.78402065867397)"><path class="b-outline" fill="#A5ABB6" stroke="none" d="M 25 0.5 L 42.506825828711854 0.5 L 42.506825828711854 -0.5 L 25 -0.5 Z M 97.40526332871185 0.5 L 114.91208915742371 0.5 L 114.91208915742371 3.5 L 121.91208915742371 0 L 114.91208915742371 -3.5 L 114.91208915742371 -0.5 L 97.40526332871185 -0.5 Z"/><text text-anchor="middle" pointer-events="none" font-size="8px" fill="#000000" x="69.95604457871185" y="3" transform="rotate(180 69.95604457871185 0)" font-family="Helvetica Neue, Helvetica, Arial, sans-serif">TUBULAÇÃO</text></g><g class="relationship" transform="translate(-12.863358616733438 204.80385836356288) rotate(214.83812130870547)"><path class="b-outline" fill="#A5ABB6" stroke="none" d="M 25 0.5 L 40.725600829610315 0.5 L 40.725600829610315 -0.5 L 25 -0.5 Z M 95.62403832961031 0.5 L 111.34963915922063 0.5 L 111.34963915922063 3.5 L 118.34963915922063 0 L 111.34963915922063 -3.5 L 111.34963915922063 -0.5 L 95.62403832961031 -0.5 Z"/><text text-anchor="middle" pointer-events="none" font-size="8px" fill="#000000" x="68.17481957961031" y="3" transform="rotate(180 68.17481957961031 0)" font-family="Helvetica Neue, Helvetica, Arial, sans-serif">TUBULAÇÃO</text></g><g class="relationship" transform="translate(179.68522350254383 -83.52813311316768) rotate(472.4479549330914)"><path class="b-outline" fill="#A5ABB6" stroke="none" d="M 24.018736134675446,-6.953439040707552 L 24.277555179777966,-5.987513214418485 A 176.72402714183843 176.72402714183843 0 0 1 40.64203181925868,-9.550776401055458 L 40.47581182197181,-10.53686509508961 A 177.72402714183843 177.72402714183843 0 0 0 24.018736134675446,-6.953439040707552 Z M 95.30526259504784,-11.200925783954688 L 95.16297365488352,-10.211100618833626 A 176.72402714183843 176.72402714183843 0 0 1 111.60894958822041,-7.045217515897585 L 110.9029021232053,-4.129484850314935 L 118.53000038541579,-5.883728875126064 L 112.55034620824058,-10.932861070007787 L 111.84429874322547,-8.017128404425137 A 177.72402714183843 177.72402714183843 0 0 0 95.30526259504784,-11.200925783954688"/><text text-anchor="middle" pointer-events="none" font-size="8px" fill="#000000" x="67.87082778805981" y="-9.496241729477134" transform="rotate(180 67.87082778805981 -12.496241729477134)" font-family="Helvetica Neue, Helvetica, Arial, sans-serif">TUBULAÇÃO</text></g><g class="relationship" transform="translate(57.33059298300128 -167.01851152896933) rotate(531.6503249714804)"><path class="b-outline" fill="#A5ABB6" stroke="none" d="M 24.018736134675446,6.953439040707552 L 24.277555179777966,5.987513214418485 A 187.5337193206127 187.5337193206127 0 0 0 43.370207636001524,10.051595189531582 L 43.21319776167315,11.03919222241666 A 188.5337193206127 188.5337193206127 0 0 1 24.018736134675446,6.953439040707552 Z M 98.05857954070179,11.67992190856259 L 97.92468452026299,10.688926387128873 A 187.5337193206127 187.5337193206127 0 0 0 117.10707024770309,7.071991508218859 L 116.39852219987523,4.156865496548127 L 124.02712228290612,5.904567065232281 L 118.05180097814025,10.958826190446501 L 117.34325293031239,8.043700178775769 A 188.5337193206127 188.5337193206127 0 0 1 98.05857954070179,11.67992190856259"/><text text-anchor="middle" pointer-events="none" font-size="8px" fill="#000000" x="70.6183043967989" y="15.86473961921456" transform="rotate(180 70.6183043967989 12.86473961921456)" font-family="Helvetica Neue, Helvetica, Arial, sans-serif">TUBULAÇÃO</text></g><g class="relationship" transform="translate(-89.41709454008235 -145.48038576314067) rotate(481.49346121418614)"><path class="b-outline" fill="#A5ABB6" stroke="none" d="M 24.018736134675446,-6.953439040707552 L 24.277555179777966,-5.987513214418485 A 186.4007910175582 186.4007910175582 0 0 1 43.08396490727419,-9.99979190729826 L 42.9260381900681,-10.987242742526263 A 187.4007910175582 187.4007910175582 0 0 0 24.018736134675446,-6.953439040707552 Z M 97.76990160611274,-11.630343114214327 L 97.63517287016813,-10.639460594583085 A 186.4007910175582 186.4007910175582 0 0 1 116.53049476435272,-7.069273251746607 L 115.822200589095,-4.154085545732466 L 123.45064844092867,-5.9024514604809575 L 117.47488699802967,-10.956190193098795 L 116.76659282277195,-8.041002487084654 A 187.4007910175582 187.4007910175582 0 0 0 97.76990160611274,-11.630343114214327"/><text text-anchor="middle" pointer-events="none" font-size="8px" fill="#000000" x="70.33017770935086" y="-9.826118080186887" transform="rotate(180 70.33017770935086 -12.826118080186887)" font-family="Helvetica Neue, Helvetica, Arial, sans-serif">TUBULAÇÃO</text></g></g><g class="layer nodes"><g class="node" aria-label="graph-node32" transform="translate(125.14728672656932,48.47711707673387)"><circle class="b-outline" cx="0" cy="0" r="25" fill="#4C8EDA" stroke="#2870c2" stroke-width="2px"/><text class="caption" text-anchor="middle" pointer-events="none" x="0" y="5" font-size="10px" fill="#FFFFFF" font-family="Helvetica Neue, Helvetica, Arial, sans-serif"> BT1</text></g><g class="node" aria-label="graph-node5" transform="translate(-12.863358616733438,204.80385836356288)"><circle class="b-outline" cx="0" cy="0" r="25" fill="#8DCC93" stroke="#5db665" stroke-width="2px"/><text class="caption" text-anchor="middle" pointer-events="none" x="0" y="0" font-size="10px" fill="#2A2C34" font-family="Helvetica Neue, Helvetica, Arial, sans-serif"> green</text><text class="caption" text-anchor="middle" pointer-events="none" x="0" y="10" font-size="10px" fill="#2A2C34" font-family="Helvetica Neue, Helvetica, Arial, sans-serif">1…</text></g><g class="node" aria-label="graph-node6" transform="translate(179.68522350254383,-83.52813311316768)"><circle class="b-outline" cx="0" cy="0" r="25" fill="#ECB5C9" stroke="#da7298" stroke-width="2px"/><text class="caption" text-anchor="middle" pointer-events="none" x="0" y="5" font-size="10px" fill="#2A2C34" font-family="Helvetica Neue, Helvetica, Arial, sans-serif"> mixproof</text></g><g class="node" aria-label="graph-node92" transform="translate(57.33059298300128,-167.01851152896933)"><circle class="b-outline" cx="0" cy="0" r="25" fill="#ECB5C9" stroke="#da7298" stroke-width="2px"/><text class="caption" text-anchor="middle" pointer-events="none" x="0" y="5" font-size="10px" fill="#2A2C34" font-family="Helvetica Neue, Helvetica, Arial, sans-serif"> mixproof</text></g><g class="node" aria-label="graph-node96" transform="translate(-89.41709454008235,-145.48038576314067)"><circle class="b-outline" cx="0" cy="0" r="25" fill="#ECB5C9" stroke="#da7298" stroke-width="2px"/><text class="caption" text-anchor="middle" pointer-events="none" x="0" y="5" font-size="10px" fill="#2A2C34" font-family="Helvetica Neue, Helvetica, Arial, sans-serif"> mixproof</text></g><g class="node" aria-label="graph-node100" transform="translate(-166.59868254266536,-19.49921117258357)"><circle class="b-outline" cx="0" cy="0" r="25" fill="#ECB5C9" stroke="#da7298" stroke-width="2px"/><text class="caption" text-anchor="middle" pointer-events="none" x="0" y="5" font-size="10px" fill="#2A2C34" font-family="Helvetica Neue, Helvetica, Arial, sans-serif"> mixproof</text></g><g class="node" aria-label="graph-node17" transform="translate(-130.52034267994947,122.91397407846397)"><circle class="b-outline" cx="0" cy="0" r="25" fill="#ECB5C9" stroke="#da7298" stroke-width="2px"/><text class="caption" text-anchor="middle" pointer-events="none" x="0" y="5" font-size="10px" fill="#2A2C34" font-family="Helvetica Neue, Helvetica, Arial, sans-serif"> mixproof</text></g></g></svg>