<svg xmlns="http://www.w3.org/2000/svg" width="367.4376220703125" height="69.9834213256836" viewBox="-204.47079467773438 -56.717472076416016 367.4376220703125 69.9834213256836"><title>Neo4j Graph Visualization</title><desc>Created using Neo4j (http://www.neo4j.com/)</desc><g class="layer relationships"><g class="relationship" transform="translate(-175.47080199268012 -21.074704195682926) rotate(357.4920643540813)"><path class="b-outline" fill="#A5ABB6" stroke="none" d="M 25 0.5 L 44.95466607733029 0.5 L 44.95466607733029 -0.5 L 25 -0.5 Z M 99.85310357733029 0.5 L 119.80776965466058 0.5 L 119.80776965466058 3.5 L 126.80776965466058 0 L 119.80776965466058 -3.5 L 119.80776965466058 -0.5 L 99.85310357733029 -0.5 Z"/><text text-anchor="middle" pointer-events="none" font-size="8px" fill="#000000" x="72.40388482733029" y="3" font-family="Helvetica Neue, Helvetica, Arial, sans-serif">TUBULACAO</text></g><g class="relationship" transform="translate(-23.80843828644798 -27.717471884006805) rotate(364.34341754016043)"><path class="b-outline" fill="#A5ABB6" stroke="none" d="M 25 0.5 L 48.16561909243079 0.5 L 48.16561909243079 -0.5 L 25 -0.5 Z M 103.06405659243079 0.5 L 126.22967568486158 0.5 L 126.22967568486158 3.5 L 133.22967568486158 0 L 126.22967568486158 -3.5 L 126.22967568486158 -0.5 L 103.06405659243079 -0.5 Z"/><text text-anchor="middle" pointer-events="none" font-size="8px" fill="#000000" x="75.61483784243079" y="3" font-family="Helvetica Neue, Helvetica, Arial, sans-serif">TUBULACAO</text></g></g><g class="layer nodes"><g class="node" aria-label="graph-node0" transform="translate(-175.47080199268012,-21.074704195682926)"><circle class="b-outline" cx="0" cy="0" r="25" fill="#8DCC93" stroke="#5db665" stroke-width="2px"/><text class="caption" text-anchor="middle" pointer-events="none" x="0" y="5" font-size="10px" fill="#2A2C34" font-family="Helvetica Neue, Helvetica, Arial, sans-serif"> inout</text></g><g class="node" aria-label="graph-node1" transform="translate(-23.80843828644798,-27.717471884006805)"><circle class="b-outline" cx="0" cy="0" r="25" fill="#ECB5C9" stroke="#da7298" stroke-width="2px"/><text class="caption" text-anchor="middle" pointer-events="none" x="0" y="5" font-size="10px" fill="#2A2C34" font-family="Helvetica Neue, Helvetica, Arial, sans-serif"> </text></g><g class="node" aria-label="graph-node2" transform="translate(133.96680650367097,-15.734050054057052)"><circle class="b-outline" cx="0" cy="0" r="25" fill="#4C8EDA" stroke="#2870c2" stroke-width="2px"/><text class="caption" text-anchor="middle" pointer-events="none" x="0" y="5" font-size="10px" fill="#FFFFFF" font-family="Helvetica Neue, Helvetica, Arial, sans-serif"> Tanque</text></g></g></svg>