<svg xmlns="http://www.w3.org/2000/svg" width="618.1820678710938" height="621.588134765625" viewBox="-307.8462219238281 -294.6758728027344 618.1820678710938 621.588134765625"><title>Neo4j Graph Visualization</title><desc>Created using Neo4j (http://www.neo4j.com/)</desc><g class="layer relationships"><g class="relationship" transform="translate(102.5282948602649 104.30513155986571) rotate(370.1703623342644)"><path class="b-outline" fill="#A5ABB6" stroke="none" d="M 25 0.5 L 40.50135778090271 0.5 L 40.50135778090271 -0.5 L 25 -0.5 Z M 95.39979528090271 0.5 L 110.90115306180542 0.5 L 110.90115306180542 3.5 L 117.90115306180542 0 L 110.90115306180542 -3.5 L 110.90115306180542 -0.5 L 95.39979528090271 -0.5 Z"/><text text-anchor="middle" pointer-events="none" font-size="8px" fill="#000000" x="67.95057653090271" y="3" font-family="Helvetica Neue, Helvetica, Arial, sans-serif">TUBULAÇÃO</text></g><g class="relationship" transform="translate(243.1840532182006 129.5379908339856) rotate(285.0196069079127)"><path class="b-outline" fill="#A5ABB6" stroke="none" d="M 25 0.5 L 42.660269838339644 0.5 L 42.660269838339644 -0.5 L 25 -0.5 Z M 97.55870733833964 0.5 L 115.21897717667929 0.5 L 115.21897717667929 3.5 L 122.21897717667929 0 L 115.21897717667929 -3.5 L 115.21897717667929 -0.5 L 97.55870733833964 -0.5 Z"/><text text-anchor="middle" pointer-events="none" font-size="8px" fill="#000000" x="70.10948858833964" y="3" font-family="Helvetica Neue, Helvetica, Arial, sans-serif">TUBULAÇÃO</text></g><g class="relationship" transform="translate(223.69467851305674 -146.07412147366438) rotate(426.6347256479956)"><path class="b-outline" fill="#A5ABB6" stroke="none" d="M 24.018736134675446,6.953439040707552 L 24.277555179777966,5.987513214418485 A 181.67298716251716 181.67298716251716 0 0 0 41.89021861651829,9.781924410092472 L 41.72834663939668,10.768736176855896 A 182.67298716251716 182.67298716251716 0 0 1 24.018736134675446,6.953439040707552 Z M 96.56550630750658,11.421915250491878 L 96.42718524284405,10.431527809602898 A 181.67298716251716 181.67298716251716 0 0 0 114.12523122634998,7.057711272881694 L 113.41801689046302,4.1422614134061515 L 121.0458166211074,5.8934527990580365 L 115.06818367419926,10.944977752182417 L 114.3609693383123,8.029527892706875 A 182.67298716251716 182.67298716251716 0 0 1 96.56550630750658,11.421915250491878"/><text text-anchor="middle" pointer-events="none" font-size="8px" fill="#000000" x="69.12823030702567" y="15.664948356014207" font-family="Helvetica Neue, Helvetica, Arial, sans-serif">TUBULAÇÃO</text></g><g class="relationship" transform="translate(117.03623514928101 -242.51759489359586) rotate(402.1207464437735)"><path class="b-outline" fill="#A5ABB6" stroke="none" d="M 24.018736134675446,-6.953439040707552 L 24.277555179777966,-5.987513214418485 A 178.6313677149399 178.6313677149399 0 0 1 41.122909654866554,-9.640251251743877 L 40.958392941378996,-10.626625547325062 A 179.6313677149399 179.6313677149399 0 0 0 24.018736134675446,-6.953439040707552 Z M 95.79090374659992,-11.286451338157065 L 95.65017026073346,-10.296403821137886 A 178.6313677149399 178.6313677149399 0 0 1 112.57854442786243,-7.050081191085369 L 111.87204271258902,-4.134458560099709 L 119.4994141860412,-5.887514293945034 L 113.52054671489363,-10.937578032399582 L 112.81404499962022,-8.021955401413923 A 179.6313677149399 179.6313677149399 0 0 0 95.79090374659992,-11.286451338157065"/><text text-anchor="middle" pointer-events="none" font-size="8px" fill="#000000" x="68.35533794676168" y="-9.561261354995821" font-family="Helvetica Neue, Helvetica, Arial, sans-serif">TUBULAÇÃO</text></g><g class="relationship" transform="translate(117.03623514928101 -242.51759489359586) rotate(189.29872473383415)"><path class="b-outline" fill="#A5ABB6" stroke="none" d="M 24.018736134675446,-6.953439040707552 L 24.277555179777966,-5.987513214418485 A 177.69789780277563 177.69789780277563 0 0 1 40.887535477869235,-9.596523850120121 L 40.7221895717485,-10.58275948693776 A 178.69789780277563 178.69789780277563 0 0 0 24.018736134675446,-6.953439040707552 Z M 95.55321716260492,-11.244651357848198 L 95.41172662428481,-10.25471174980845 A 177.69789780277563 177.69789780277563 0 0 1 112.1039863239182,-7.047708570579862 L 111.39770620295921,-4.1320322526841045 L 119.02494441916814,-5.88566767465819 L 113.04569315186352,-10.935276994440873 L 112.33941303090452,-8.019600676545114 A 178.69789780277563 178.69789780277563 0 0 0 95.55321716260492,-11.244651357848198"/><text text-anchor="middle" pointer-events="none" font-size="8px" fill="#000000" x="68.1181990518164" y="-9.529440107562891" transform="rotate(180 68.1181990518164 -12.529440107562891)" font-family="Helvetica Neue, Helvetica, Arial, sans-serif">TUBULAÇÃO</text></g><g class="relationship" transform="translate(-24.402659140836153 -265.6758695852848) rotate(520.2617382744263)"><path class="b-outline" fill="#A5ABB6" stroke="none" d="M 24.018736134675446,-6.953439040707552 L 24.277555179777966,-5.987513214418485 A 180.3267180684232 180.3267180684232 0 0 1 41.55052738958304,-9.719368055869865 L 41.38749543801178,-10.705988845619828 A 181.3267180684232 181.3267180684232 0 0 0 24.018736134675446,-6.953439040707552 Z M 96.22263146665105,-11.362093868219318 L 96.08325273868888,-10.371854720239583 A 180.3267180684232 180.3267180684232 0 0 1 113.44057083708708,-7.0543529569573735 L 112.73367015477811,-4.138827030927711 L 120.36128144487445,-5.890839019241396 L 114.3831050801657,-10.941720858330257 L 113.67620439785674,-8.026194932300594 A 181.3267180684232 181.3267180684232 0 0 0 96.22263146665105,-11.362093868219318"/><text text-anchor="middle" pointer-events="none" font-size="8px" fill="#000000" x="68.78609869159524" y="-9.619054729624054" transform="rotate(180 68.78609869159524 -12.619054729624054)" font-family="Helvetica Neue, Helvetica, Arial, sans-serif">TUBULAÇÃO</text></g><g class="relationship" transform="translate(-160.56068104750096 -216.82163299440896) rotate(485.21090333710214)"><path class="b-outline" fill="#A5ABB6" stroke="none" d="M 24.018736134675446,-6.953439040707552 L 24.277555179777966,-5.987513214418485 A 180.4335032262762 180.4335032262762 0 0 1 41.5774675556852,-9.724338623878083 L 41.414528222867666,-10.710974713741507 A 181.4335032262762 181.4335032262762 0 0 0 24.018736134675446,-6.953439040707552 Z M 96.24982671002445,-11.366846729588218 L 96.11053245581385,-10.376595695383287 A 180.4335032262762 180.4335032262762 0 0 1 113.49487347457003,-7.054620424788599 L 112.7879478117909,-4.139100555656457 L 120.4155741130082,-5.891047189826008 L 114.43744102494219,-10.941980250298121 L 113.73051536216306,-8.026460381165979 A 181.4335032262762 181.4335032262762 0 0 0 96.24982671002445,-11.366846729588218"/><text text-anchor="middle" pointer-events="none" font-size="8px" fill="#000000" x="68.8132341981607" y="-9.622694974768677" transform="rotate(180 68.8132341981607 -12.622694974768677)" font-family="Helvetica Neue, Helvetica, Arial, sans-serif">TUBULAÇÃO</text></g><g class="relationship" transform="translate(-243.9996096847861 -98.58718558380103) rotate(463.89795318542554)"><path class="b-outline" fill="#A5ABB6" stroke="none" d="M 24.018736134675446,-6.953439040707552 L 24.277555179777966,-5.987513214418485 A 181.15353001649882 181.15353001649882 0 0 1 41.759136301402194,-9.757815006553614 L 41.596818721769495,-10.744553575447213 A 182.15353001649882 182.15353001649882 0 0 0 24.018736134675446,-6.953439040707552 Z M 96.43320384469122,-11.398858637987843 L 96.29447655784257,-10.408528016486287 A 181.15353001649882 181.15353001649882 0 0 1 113.86104193661758,-7.056418992464369 L 113.1539482946036,-4.140939858355638 L 120.78167552320696,-5.892447016783197 L 114.8038334593029,-10.943724504609346 L 114.0967398172889,-8.028245370500613 A 182.15353001649882 182.15353001649882 0 0 0 96.43320384469122,-11.398858637987843"/><text text-anchor="middle" pointer-events="none" font-size="8px" fill="#000000" x="68.99621208629655" y="-9.647240306408861" transform="rotate(180 68.99621208629655 -12.647240306408861)" font-family="Helvetica Neue, Helvetica, Arial, sans-serif">TUBULAÇÃO</text></g><g class="relationship" transform="translate(-278.84622292622214 42.24301951720982) rotate(395.082808207129)"><path class="b-outline" fill="#A5ABB6" stroke="none" d="M 24.018736134675446,-6.953439040707552 L 24.277555179777966,-5.987513214418485 A 179.07448194432567 179.07448194432567 0 0 1 41.2346594616976,-9.660967118387418 L 41.070533440960176,-10.647406497830929 A 180.07448194432567 180.07448194432567 0 0 0 24.018736134675446,-6.953439040707552 Z M 95.90373884428695,-11.306255871505613 L 95.76336194594737,-10.31615773171714 A 179.07448194432567 179.07448194432567 0 0 1 112.80383481064783,-7.051202332345025 L 112.09722838486589,-4.135605076370931 L 119.7246628122177,-5.888386881516179 L 113.7459767116904,-10.938665340310484 L 113.03937028590846,-8.02306808433639 A 180.07448194432567 180.07448194432567 0 0 0 95.90373884428695,-11.306255871505613"/><text text-anchor="middle" pointer-events="none" font-size="8px" fill="#000000" x="68.4679168934543" y="-9.576366798579159" font-family="Helvetica Neue, Helvetica, Arial, sans-serif">TUBULAÇÃO</text></g><g class="relationship" transform="translate(-160.99038859939284 125.02066790948541) rotate(431.68789626174345)"><path class="b-outline" fill="#A5ABB6" stroke="none" d="M 25 0.5 L 41.26954067808353 0.5 L 41.26954067808353 -0.5 L 25 -0.5 Z M 96.16797817808353 0.5 L 112.43751885616706 0.5 L 112.43751885616706 3.5 L 119.43751885616706 0 L 112.43751885616706 -3.5 L 112.43751885616706 -0.5 L 96.16797817808353 -0.5 Z"/><text text-anchor="middle" pointer-events="none" font-size="8px" fill="#000000" x="68.71875942808353" y="3" font-family="Helvetica Neue, Helvetica, Arial, sans-serif">TUBULAÇÃO</text></g><g class="relationship" transform="translate(22.78758113860704 297.9122729330073) rotate(194.49096038223922)"><path class="b-outline" fill="#A5ABB6" stroke="none" d="M 24.018736134675446,-6.953439040707552 L 24.277555179777966,-5.987513214418485 A 176.9532929789617 176.9532929789617 0 0 1 40.69982225159926,-9.561557960584224 L 40.53380886608835,-10.547681459863696 A 177.9532929789617 177.9532929789617 0 0 0 24.018736134675446,-6.953439040707552 Z M 95.36363358853986,-11.211230341659245 L 95.22153340219944,-10.221378061244621 A 176.9532929789617 176.9532929789617 0 0 1 111.72548413981077,-7.04580540795536 L 111.01938176767085,-4.130086038733008 L 118.64651306335291,-5.884186434499286 L 112.66695396933066,-10.933431233585162 L 111.96085159719074,-8.017711864362811 A 177.9532929789617 177.9532929789617 0 0 0 95.36363358853986,-11.211230341659245"/><text text-anchor="middle" pointer-events="none" font-size="8px" fill="#000000" x="67.92906035164252" y="-9.504057187173714" transform="rotate(180 67.92906035164252 -12.504057187173714)" font-family="Helvetica Neue, Helvetica, Arial, sans-serif">TUBULAÇÃO</text></g><g class="relationship" transform="translate(-115.60912904601594 262.14374450374305) rotate(374.4909603822392)"><path class="b-outline" fill="#A5ABB6" stroke="none" d="M 24.018736134675446,-6.953439040707552 L 24.277555179777966,-5.987513214418485 A 176.9532929789617 176.9532929789617 0 0 1 40.69982225159926,-9.561557960584224 L 40.53380886608835,-10.547681459863696 A 177.9532929789617 177.9532929789617 0 0 0 24.018736134675446,-6.953439040707552 Z M 95.36363358853986,-11.211230341659245 L 95.22153340219944,-10.221378061244621 A 176.9532929789617 176.9532929789617 0 0 1 111.72548413981077,-7.04580540795536 L 111.01938176767085,-4.130086038733008 L 118.64651306335291,-5.884186434499286 L 112.66695396933066,-10.933431233585162 L 111.96085159719074,-8.017711864362811 A 177.9532929789617 177.9532929789617 0 0 0 95.36363358853986,-11.211230341659245"/><text text-anchor="middle" pointer-events="none" font-size="8px" fill="#000000" x="67.92906035164252" y="-9.504057187173714" font-family="Helvetica Neue, Helvetica, Arial, sans-serif">TUBULAÇÃO</text></g><g class="relationship" transform="translate(281.3357885390787 -12.65157394822082) rotate(246.6347256479956)"><path class="b-outline" fill="#A5ABB6" stroke="none" d="M 24.018736134675446,6.953439040707552 L 24.277555179777966,5.987513214418485 A 181.67298716251716 181.67298716251716 0 0 0 41.89021861651829,9.781924410092472 L 41.72834663939668,10.768736176855896 A 182.67298716251716 182.67298716251716 0 0 1 24.018736134675446,6.953439040707552 Z M 96.56550630750658,11.421915250491878 L 96.42718524284405,10.431527809602898 A 181.67298716251716 181.67298716251716 0 0 0 114.12523122634998,7.057711272881694 L 113.41801689046302,4.1422614134061515 L 121.0458166211074,5.8934527990580365 L 115.06818367419926,10.944977752182417 L 114.3609693383123,8.029527892706875 A 182.67298716251716 182.67298716251716 0 0 1 96.56550630750658,11.421915250491878"/><text text-anchor="middle" pointer-events="none" font-size="8px" fill="#000000" x="69.12823030702567" y="15.664948356014207" transform="rotate(180 69.12823030702567 12.664948356014207)" font-family="Helvetica Neue, Helvetica, Arial, sans-serif">TUBULAÇÃO</text></g><g class="relationship" transform="translate(223.69467851305674 -146.07412147366438) rotate(222.1207464437735)"><path class="b-outline" fill="#A5ABB6" stroke="none" d="M 24.018736134675446,-6.953439040707552 L 24.277555179777966,-5.987513214418485 A 178.6313677149399 178.6313677149399 0 0 1 41.122909654866554,-9.640251251743877 L 40.958392941378996,-10.626625547325062 A 179.6313677149399 179.6313677149399 0 0 0 24.018736134675446,-6.953439040707552 Z M 95.79090374659992,-11.286451338157065 L 95.65017026073346,-10.296403821137886 A 178.6313677149399 178.6313677149399 0 0 1 112.57854442786243,-7.050081191085369 L 111.87204271258902,-4.134458560099709 L 119.4994141860412,-5.887514293945034 L 113.52054671489363,-10.937578032399582 L 112.81404499962022,-8.021955401413923 A 179.6313677149399 179.6313677149399 0 0 0 95.79090374659992,-11.286451338157065"/><text text-anchor="middle" pointer-events="none" font-size="8px" fill="#000000" x="68.35533794676168" y="-9.561261354995821" transform="rotate(180 68.35533794676168 -12.561261354995821)" font-family="Helvetica Neue, Helvetica, Arial, sans-serif">TUBULAÇÃO</text></g><g class="relationship" transform="translate(-24.402659140836153 -265.6758695852848) rotate(369.29872473383415)"><path class="b-outline" fill="#A5ABB6" stroke="none" d="M 24.018736134675446,-6.953439040707552 L 24.277555179777966,-5.987513214418485 A 177.69789780277563 177.69789780277563 0 0 1 40.887535477869235,-9.596523850120121 L 40.7221895717485,-10.58275948693776 A 178.69789780277563 178.69789780277563 0 0 0 24.018736134675446,-6.953439040707552 Z M 95.55321716260492,-11.244651357848198 L 95.41172662428481,-10.25471174980845 A 177.69789780277563 177.69789780277563 0 0 1 112.1039863239182,-7.047708570579862 L 111.39770620295921,-4.1320322526841045 L 119.02494441916814,-5.88566767465819 L 113.04569315186352,-10.935276994440873 L 112.33941303090452,-8.019600676545114 A 178.69789780277563 178.69789780277563 0 0 0 95.55321716260492,-11.244651357848198"/><text text-anchor="middle" pointer-events="none" font-size="8px" fill="#000000" x="68.1181990518164" y="-9.529440107562891" font-family="Helvetica Neue, Helvetica, Arial, sans-serif">TUBULAÇÃO</text></g><g class="relationship" transform="translate(-160.56068104750096 -216.82163299440896) rotate(340.2617382744263)"><path class="b-outline" fill="#A5ABB6" stroke="none" d="M 24.018736134675446,-6.953439040707552 L 24.277555179777966,-5.987513214418485 A 180.3267180684232 180.3267180684232 0 0 1 41.55052738958304,-9.719368055869865 L 41.38749543801178,-10.705988845619828 A 181.3267180684232 181.3267180684232 0 0 0 24.018736134675446,-6.953439040707552 Z M 96.22263146665105,-11.362093868219318 L 96.08325273868888,-10.371854720239583 A 180.3267180684232 180.3267180684232 0 0 1 113.44057083708708,-7.0543529569573735 L 112.73367015477811,-4.138827030927711 L 120.36128144487445,-5.890839019241396 L 114.3831050801657,-10.941720858330257 L 113.67620439785674,-8.026194932300594 A 181.3267180684232 181.3267180684232 0 0 0 96.22263146665105,-11.362093868219318"/><text text-anchor="middle" pointer-events="none" font-size="8px" fill="#000000" x="68.78609869159524" y="-9.619054729624054" font-family="Helvetica Neue, Helvetica, Arial, sans-serif">TUBULAÇÃO</text></g><g class="relationship" transform="translate(-243.9996096847861 -98.58718558380103) rotate(305.21090333710214)"><path class="b-outline" fill="#A5ABB6" stroke="none" d="M 24.018736134675446,-6.953439040707552 L 24.277555179777966,-5.987513214418485 A 180.4335032262762 180.4335032262762 0 0 1 41.5774675556852,-9.724338623878083 L 41.414528222867666,-10.710974713741507 A 181.4335032262762 181.4335032262762 0 0 0 24.018736134675446,-6.953439040707552 Z M 96.24982671002445,-11.366846729588218 L 96.11053245581385,-10.376595695383287 A 180.4335032262762 180.4335032262762 0 0 1 113.49487347457003,-7.054620424788599 L 112.7879478117909,-4.139100555656457 L 120.4155741130082,-5.891047189826008 L 114.43744102494219,-10.941980250298121 L 113.73051536216306,-8.026460381165979 A 181.4335032262762 181.4335032262762 0 0 0 96.24982671002445,-11.366846729588218"/><text text-anchor="middle" pointer-events="none" font-size="8px" fill="#000000" x="68.8132341981607" y="-9.622694974768677" font-family="Helvetica Neue, Helvetica, Arial, sans-serif">TUBULAÇÃO</text></g><g class="relationship" transform="translate(-278.84622292622214 42.24301951720982) rotate(283.89795318542554)"><path class="b-outline" fill="#A5ABB6" stroke="none" d="M 24.018736134675446,-6.953439040707552 L 24.277555179777966,-5.987513214418485 A 181.15353001649882 181.15353001649882 0 0 1 41.759136301402194,-9.757815006553614 L 41.596818721769495,-10.744553575447213 A 182.15353001649882 182.15353001649882 0 0 0 24.018736134675446,-6.953439040707552 Z M 96.43320384469122,-11.398858637987843 L 96.29447655784257,-10.408528016486287 A 181.15353001649882 181.15353001649882 0 0 1 113.86104193661758,-7.056418992464369 L 113.1539482946036,-4.140939858355638 L 120.78167552320696,-5.892447016783197 L 114.8038334593029,-10.943724504609346 L 114.0967398172889,-8.028245370500613 A 182.15353001649882 182.15353001649882 0 0 0 96.43320384469122,-11.398858637987843"/><text text-anchor="middle" pointer-events="none" font-size="8px" fill="#000000" x="68.99621208629655" y="-9.647240306408861" font-family="Helvetica Neue, Helvetica, Arial, sans-serif">TUBULAÇÃO</text></g><g class="relationship" transform="translate(-160.99038859939284 125.02066790948541) rotate(215.082808207129)"><path class="b-outline" fill="#A5ABB6" stroke="none" d="M 24.018736134675446,-6.953439040707552 L 24.277555179777966,-5.987513214418485 A 179.07448194432567 179.07448194432567 0 0 1 41.2346594616976,-9.660967118387418 L 41.070533440960176,-10.647406497830929 A 180.07448194432567 180.07448194432567 0 0 0 24.018736134675446,-6.953439040707552 Z M 95.90373884428695,-11.306255871505613 L 95.76336194594737,-10.31615773171714 A 179.07448194432567 179.07448194432567 0 0 1 112.80383481064783,-7.051202332345025 L 112.09722838486589,-4.135605076370931 L 119.7246628122177,-5.888386881516179 L 113.7459767116904,-10.938665340310484 L 113.03937028590846,-8.02306808433639 A 180.07448194432567 180.07448194432567 0 0 0 95.90373884428695,-11.306255871505613"/><text text-anchor="middle" pointer-events="none" font-size="8px" fill="#000000" x="68.4679168934543" y="-9.576366798579159" transform="rotate(180 68.4679168934543 -12.576366798579159)" font-family="Helvetica Neue, Helvetica, Arial, sans-serif">TUBULAÇÃO</text></g></g><g class="layer nodes"><g class="node" aria-label="graph-node3" transform="translate(102.5282948602649,104.30513155986571)"><circle class="b-outline" cx="0" cy="0" r="25" fill="#8DCC93" stroke="#5db665" stroke-width="2px"/><text class="caption" text-anchor="middle" pointer-events="none" x="0" y="5" font-size="10px" fill="#2A2C34" font-family="Helvetica Neue, Helvetica, Arial, sans-serif"> wort</text></g><g class="node" aria-label="graph-node32" transform="translate(22.78758113860704,297.9122729330073)"><circle class="b-outline" cx="0" cy="0" r="25" fill="#4C8EDA" stroke="#2870c2" stroke-width="2px"/><text class="caption" text-anchor="middle" pointer-events="none" x="0" y="5" font-size="10px" fill="#FFFFFF" font-family="Helvetica Neue, Helvetica, Arial, sans-serif"> BT1</text></g><g class="node" aria-label="graph-node4" transform="translate(243.1840532182006,129.5379908339856)"><circle class="b-outline" cx="0" cy="0" r="25" fill="#ECB5C9" stroke="#da7298" stroke-width="2px"/><text class="caption" text-anchor="middle" pointer-events="none" x="0" y="5" font-size="10px" fill="#2A2C34" font-family="Helvetica Neue, Helvetica, Arial, sans-serif"> mixproof</text></g><g class="node" aria-label="graph-node62" transform="translate(281.3357885390787,-12.65157394822082)"><circle class="b-outline" cx="0" cy="0" r="25" fill="#ECB5C9" stroke="#da7298" stroke-width="2px"/><text class="caption" text-anchor="middle" pointer-events="none" x="0" y="5" font-size="10px" fill="#2A2C34" font-family="Helvetica Neue, Helvetica, Arial, sans-serif"> mixproof</text></g><g class="node" aria-label="graph-node63" transform="translate(223.69467851305674,-146.07412147366438)"><circle class="b-outline" cx="0" cy="0" r="25" fill="#ECB5C9" stroke="#da7298" stroke-width="2px"/><text class="caption" text-anchor="middle" pointer-events="none" x="0" y="5" font-size="10px" fill="#2A2C34" font-family="Helvetica Neue, Helvetica, Arial, sans-serif"> mixproof</text></g><g class="node" aria-label="graph-node57" transform="translate(117.03623514928101,-242.51759489359586)"><circle class="b-outline" cx="0" cy="0" r="25" fill="#ECB5C9" stroke="#da7298" stroke-width="2px"/><text class="caption" text-anchor="middle" pointer-events="none" x="0" y="5" font-size="10px" fill="#2A2C34" font-family="Helvetica Neue, Helvetica, Arial, sans-serif"> mixproof</text></g><g class="node" aria-label="graph-node58" transform="translate(-24.402659140836153,-265.6758695852848)"><circle class="b-outline" cx="0" cy="0" r="25" fill="#ECB5C9" stroke="#da7298" stroke-width="2px"/><text class="caption" text-anchor="middle" pointer-events="none" x="0" y="5" font-size="10px" fill="#2A2C34" font-family="Helvetica Neue, Helvetica, Arial, sans-serif"> mixproof</text></g><g class="node" aria-label="graph-node59" transform="translate(-160.56068104750096,-216.82163299440896)"><circle class="b-outline" cx="0" cy="0" r="25" fill="#ECB5C9" stroke="#da7298" stroke-width="2px"/><text class="caption" text-anchor="middle" pointer-events="none" x="0" y="5" font-size="10px" fill="#2A2C34" font-family="Helvetica Neue, Helvetica, Arial, sans-serif"> mixproof</text></g><g class="node" aria-label="graph-node60" transform="translate(-243.9996096847861,-98.58718558380103)"><circle class="b-outline" cx="0" cy="0" r="25" fill="#ECB5C9" stroke="#da7298" stroke-width="2px"/><text class="caption" text-anchor="middle" pointer-events="none" x="0" y="5" font-size="10px" fill="#2A2C34" font-family="Helvetica Neue, Helvetica, Arial, sans-serif"> mixproof</text></g><g class="node" aria-label="graph-node61" transform="translate(-278.84622292622214,42.24301951720982)"><circle class="b-outline" cx="0" cy="0" r="25" fill="#ECB5C9" stroke="#da7298" stroke-width="2px"/><text class="caption" text-anchor="middle" pointer-events="none" x="0" y="5" font-size="10px" fill="#2A2C34" font-family="Helvetica Neue, Helvetica, Arial, sans-serif"> mixproof</text></g><g class="node" aria-label="graph-node92" transform="translate(-160.99038859939284,125.02066790948541)"><circle class="b-outline" cx="0" cy="0" r="25" fill="#ECB5C9" stroke="#da7298" stroke-width="2px"/><text class="caption" text-anchor="middle" pointer-events="none" x="0" y="5" font-size="10px" fill="#2A2C34" font-family="Helvetica Neue, Helvetica, Arial, sans-serif"> mixproof</text></g><g class="node" aria-label="graph-node6" transform="translate(-115.60912904601594,262.14374450374305)"><circle class="b-outline" cx="0" cy="0" r="25" fill="#ECB5C9" stroke="#da7298" stroke-width="2px"/><text class="caption" text-anchor="middle" pointer-events="none" x="0" y="5" font-size="10px" fill="#2A2C34" font-family="Helvetica Neue, Helvetica, Arial, sans-serif"> mixproof</text></g></g></svg>